<svg width="14" height="15" viewBox="0 0 14 15" fill="none" xmlns="http://www.w3.org/2000/svg">
<path d="M13.7917 6.19348L7.42764 0.172237C7.31049 0.0614047 7.15786 -5.51035e-06 6.99954 3.70851e-10C6.84122 5.51109e-06 6.68859 0.0614263 6.57146 0.172267L0.208259 6.19348C0.142662 6.25555 0.0902523 6.3312 0.0543889 6.41559C0.0185255 6.49997 -1.0537e-08 6.59122 0 6.68348V14.3377C0 14.5134 0.0670454 14.6818 0.186387 14.806C0.305728 14.9302 0.467589 15 0.636364 15H13.3636C13.5324 15 13.6943 14.9302 13.8136 14.806C13.933 14.6818 14 14.5134 14 14.3377V6.68351C14 6.59123 13.9815 6.49998 13.9456 6.41559C13.9097 6.33121 13.8573 6.25555 13.7917 6.19348Z" fill="white"/>
</svg>
