<svg width="15" height="15" viewBox="0 0 15 15" fill="none" xmlns="http://www.w3.org/2000/svg">
<path fill-rule="evenodd" clip-rule="evenodd" d="M10.6036 9.35024H9.95368L9.72333 9.12812C10.5295 8.19029 11.0149 6.97275 11.0149 5.64826C11.0149 2.69491 8.62097 0.300964 5.66761 0.300964C2.71426 0.300964 0.320312 2.69491 0.320312 5.64826C0.320312 8.60162 2.71426 10.9956 5.66761 10.9956C6.9921 10.9956 8.20964 10.5102 9.14747 9.70399L9.36959 9.93433V10.5842L13.4829 14.6893L14.7087 13.4635L10.6036 9.35024ZM5.66756 9.35026C3.61914 9.35026 1.96559 7.69671 1.96559 5.64829C1.96559 3.59986 3.61914 1.94631 5.66756 1.94631C7.71599 1.94631 9.36954 3.59986 9.36954 5.64829C9.36954 7.69671 7.71599 9.35026 5.66756 9.35026Z" fill="black"/>
</svg>
