<svg width="22" height="22" viewBox="0 0 22 22" fill="none" xmlns="http://www.w3.org/2000/svg">
<path fill-rule="evenodd" clip-rule="evenodd" d="M17.5296 11.858C17.5626 11.583 17.5846 11.297 17.5846 11C17.5846 10.703 17.5626 10.417 17.5186 10.142L19.3776 8.68995C19.5426 8.55795 19.5866 8.31595 19.4876 8.12895L17.7276 5.08195C17.6176 4.88395 17.3866 4.81795 17.1886 4.88395L14.9996 5.76395C14.5376 5.41195 14.0536 5.12595 13.5146 4.90595L13.1846 2.57395C13.1516 2.35395 12.9646 2.19995 12.7446 2.19995H9.22455C9.00455 2.19995 8.82855 2.35395 8.79555 2.57395L8.46555 4.90595C7.92655 5.12595 7.43155 5.42295 6.98055 5.76395L4.79155 4.88395C4.59355 4.80695 4.36255 4.88395 4.25255 5.08195L2.49255 8.12895C2.38255 8.32695 2.42655 8.55795 2.60255 8.68995L4.46155 10.142C4.41755 10.417 4.38455 10.714 4.38455 11C4.38455 11.286 4.40655 11.583 4.45055 11.858L2.59155 13.31C2.42655 13.442 2.38255 13.684 2.48155 13.871L4.24155 16.918C4.35155 17.116 4.58255 17.1819 4.78055 17.1159L6.96955 16.236C7.43155 16.588 7.91555 16.8739 8.45455 17.0939L8.78455 19.426C8.82855 19.646 9.00455 19.8 9.22455 19.8H12.7446C12.9646 19.8 13.1516 19.646 13.1736 19.426L13.5036 17.0939C14.0426 16.8739 14.5376 16.577 14.9886 16.236L17.1776 17.1159C17.3756 17.1929 17.6066 17.116 17.7166 16.918L19.4766 13.871C19.5866 13.673 19.5426 13.442 19.3666 13.31L17.5296 11.858V11.858ZM10.9846 14.3C9.16955 14.3 7.68455 12.815 7.68455 11C7.68455 9.18495 9.16955 7.69995 10.9846 7.69995C12.7996 7.69995 14.2846 9.18495 14.2846 11C14.2846 12.815 12.7996 14.3 10.9846 14.3Z" fill="white"/>
</svg>
